<svg width="285" height="269" viewBox="0 0 285 269" fill="none" xmlns="http://www.w3.org/2000/svg">
<g clip-path="url(#clip0)">
<path d="M206.911 152.647V226.956L219.312 247.213L220.256 248.754H269.185L270.173 152.647H206.911Z" fill="#E6E6E6"/>
<path opacity="0.1" d="M206.911 152.647V226.956L219.312 247.213L220.073 152.647H206.911Z" fill="black"/>
<path d="M88.7899 150.665V224.975L76.3895 245.231L75.4457 246.772H26.5168L25.5282 150.665H88.7899Z" fill="#E6E6E6"/>
<path opacity="0.1" d="M88.7899 150.665V224.975L76.3895 245.231L75.6285 150.665H88.7899Z" fill="black"/>
<path d="M285 149.179V153.637H19.1032V147.197L43.8147 134.317H263.254L285 149.179Z" fill="#E6E6E6"/>
<path opacity="0.1" d="M285 149.179V153.637H19.1032V147.197L285 149.179Z" fill="black"/>
<path d="M57.1593 171.472H45.2974L40.3551 168.004H62.5957L57.1593 171.472Z" fill="#3F3D56"/>
<path d="M57.1593 185.838H45.2974L40.3551 182.37H62.5957L57.1593 185.838Z" fill="#3F3D56"/>
<path d="M57.1593 206.15H45.2974L40.3551 202.681H62.5957L57.1593 206.15Z" fill="#3F3D56"/>
<path d="M57.1593 226.461H45.2974L40.3551 222.993H62.5957L57.1593 226.461Z" fill="#3F3D56"/>
<path d="M238.542 173.453H250.404L255.346 169.985H233.106L238.542 173.453Z" fill="#3F3D56"/>
<path d="M238.542 187.82H250.404L255.346 184.352H233.106L238.542 187.82Z" fill="#3F3D56"/>
<path d="M238.542 208.131H250.404L255.346 204.663H233.106L238.542 208.131Z" fill="#3F3D56"/>
<path d="M238.542 228.442H250.404L255.346 224.975H233.106L238.542 228.442Z" fill="#3F3D56"/>
<path d="M246.62 48.3852H146.762C146.266 48.3851 145.775 48.483 145.316 48.6732C144.858 48.8634 144.442 49.1423 144.091 49.4938C143.74 49.8453 143.462 50.2626 143.272 50.7219C143.083 51.1812 142.985 51.6735 142.985 52.1706V119.596C142.985 120.093 143.083 120.586 143.272 121.045C143.462 121.504 143.74 121.921 144.091 122.273C144.442 122.625 144.858 122.903 145.316 123.094C145.775 123.284 146.266 123.382 146.762 123.382H184.669L183.248 132.47C183.248 132.47 175.132 136.792 180.839 136.919C186.546 137.046 213.43 136.919 213.43 136.919C213.43 136.919 218.629 136.919 210.387 132.343L209.051 123.382H246.62C247.116 123.382 247.607 123.284 248.065 123.094C248.523 122.903 248.94 122.625 249.29 122.273C249.641 121.922 249.919 121.504 250.109 121.045C250.299 120.586 250.396 120.093 250.396 119.596V52.1706C250.396 51.6735 250.299 51.1812 250.109 50.7219C249.919 50.2626 249.641 49.8453 249.29 49.4938C248.94 49.1423 248.523 48.8634 248.065 48.6732C247.607 48.483 247.116 48.3851 246.62 48.3852Z" fill="#3F3D56"/>
<path d="M246.782 52.3893H146.599V108.573H246.782V52.3893Z" fill="#F2F2F2"/>
<path d="M196.691 51.2452C197.041 51.2452 197.325 50.9607 197.325 50.6097C197.325 50.2587 197.041 49.9741 196.691 49.9741C196.34 49.9741 196.057 50.2587 196.057 50.6097C196.057 50.9607 196.34 51.2452 196.691 51.2452Z" fill="#F2F2F2"/>
<path d="M196.691 120.649C198.021 120.649 199.1 119.567 199.1 118.234C199.1 116.9 198.021 115.818 196.691 115.818C195.36 115.818 194.281 116.9 194.281 118.234C194.281 119.567 195.36 120.649 196.691 120.649Z" fill="#F2F2F2"/>
<path d="M192.936 143.783V145.054H124.71V144.037L124.804 143.783L126.486 139.207H191.541L192.936 143.783Z" fill="#3F3D56"/>
<path d="M219.191 142.539C219.067 143.071 218.598 143.633 217.538 144.165C213.733 146.071 205.998 143.656 205.998 143.656C205.998 143.656 200.038 142.639 200.038 139.97C200.205 139.855 200.379 139.751 200.56 139.658C202.159 138.81 207.463 136.717 216.866 139.747C217.559 139.965 218.178 140.371 218.654 140.921C218.865 141.129 219.023 141.384 219.117 141.665C219.21 141.946 219.236 142.246 219.191 142.539Z" fill="#3F3D56"/>
<path opacity="0.1" d="M219.192 142.539C214.535 144.327 210.384 144.461 206.125 141.495C204.514 140.301 202.563 139.658 200.56 139.658C202.16 138.81 207.463 136.717 216.866 139.747C217.559 139.965 218.178 140.371 218.654 140.921C218.865 141.129 219.023 141.384 219.117 141.665C219.21 141.946 219.236 142.246 219.192 142.539Z" fill="black"/>
<path d="M213.353 141.495C214.263 141.495 215.002 141.268 215.002 140.987C215.002 140.706 214.263 140.478 213.353 140.478C212.442 140.478 211.704 140.706 211.704 140.987C211.704 141.268 212.442 141.495 213.353 141.495Z" fill="#F2F2F2"/>
<path opacity="0.1" d="M192.936 143.783V145.054H124.71V144.037L124.804 143.783H192.936Z" fill="black"/>
<path d="M37.9344 5.68265e-05C37.242 -0.0569275 36.5487 0.0983248 35.9463 0.445242C35.3548 0.851262 34.982 1.56257 34.6014 2.22448C33.1465 4.78546 31.1768 7.01565 28.8171 8.77378C27.0983 10.0359 24.9132 11.6095 25.2073 13.9365C25.3624 14.7049 25.6456 15.4417 26.045 16.1158C27.6306 19.324 31.9573 21.8033 31.5318 25.4642C33.1071 22.8208 31 21.5137 32.5753 18.8702C33.3255 17.6114 34.6287 16.1903 35.7614 16.9809C36.1406 17.2456 36.3896 17.7204 36.7845 17.9527C37.7267 18.5069 38.7291 17.4473 39.5632 16.6969C42.4392 14.109 46.5292 14.7869 50.1081 15.5933C51.7977 15.9739 53.6536 16.4734 54.6524 18.092C55.9656 20.2202 53.4047 22.5187 52.7577 24.9248C52.7048 25.1299 52.7023 25.3447 52.7504 25.5509C52.7984 25.7571 52.8956 25.9485 53.0336 26.1089C53.1715 26.2693 53.3462 26.3937 53.5426 26.4717C53.739 26.5496 53.9513 26.5788 54.1614 26.5565C55.2353 26.4503 56.5074 26.3633 56.571 25.891C57.9221 25.9392 59.5776 25.7858 60.1565 24.3756C60.3334 23.8177 60.4269 23.2365 60.434 22.6511C60.6465 20.2823 61.6495 18.1213 62.3139 15.8667C62.9784 13.6122 63.2673 10.97 62.146 8.97111C61.7458 8.30604 61.2509 7.70311 60.6769 7.18139C54.3136 1.00883 45.9472 -0.00910556 37.9344 5.68265e-05Z" fill="#2F2E41"/>
<path d="M32.9157 30.0881C32.9157 30.0881 34.2996 41.6479 29.2253 42.5727C24.1509 43.4975 33.8383 59.2188 33.8383 59.2188L56.9035 61.9931L51.3679 43.4975C51.3679 43.4975 47.6774 42.1103 49.984 32.8625C52.2905 23.6146 32.9157 30.0881 32.9157 30.0881Z" fill="#FFB8B8"/>
<path d="M18.8459 228.685L20.6913 254.117H30.3783L27.6108 228.685H18.8459Z" fill="#FFB8B8"/>
<path d="M89.8867 180.597L91.2705 201.866L101.881 197.243L97.7288 179.672L89.8867 180.597Z" fill="#FFB8B8"/>
<path d="M11.9264 131.583C11.9264 131.583 12.3877 158.402 15.1555 167.187C17.9233 175.973 17.462 176.435 17.0007 177.822C16.5394 179.209 16.0781 178.285 16.0781 180.597C16.0781 182.909 15.1555 219.437 16.0781 222.674C17.0007 225.911 13.3103 231.46 16.0781 231.922C18.8459 232.384 31.7624 231.922 32.2237 229.148C32.6851 226.373 28.5333 225.449 30.3785 223.599C32.2238 221.749 34.9916 183.833 34.9916 183.833L41.4498 157.477L53.4437 143.605H78.8154L86.6576 174.123C86.6576 174.123 83.4285 182.909 85.735 182.909C88.0415 182.909 101.881 185.683 101.881 175.51C101.881 165.338 97.2676 135.282 96.345 134.357C95.4224 133.433 96.8063 130.196 95.4224 128.809C94.0385 127.422 77.8928 117.711 71.8959 115.862C65.8989 114.012 57.4862 111.811 57.4862 111.811L11.9264 131.583Z" fill="#2F2E41"/>
<path d="M101.881 193.544C101.881 193.544 94.9611 191.232 91.732 198.167C88.5028 205.103 89.8868 206.953 89.8868 206.953C89.8868 206.953 100.497 210.652 102.342 208.803C103.145 207.998 105.694 207.718 108.318 207.659C112.315 207.569 113.378 201.902 109.603 200.582C109.491 200.543 109.377 200.508 109.261 200.479C105.571 199.555 101.881 193.544 101.881 193.544Z" fill="#2F2E41"/>
<path d="M43.295 37.7176C50.9382 37.7176 57.1342 31.507 57.1342 23.8458C57.1342 16.1847 50.9382 9.97409 43.295 9.97409C35.6519 9.97409 29.4559 16.1847 29.4559 23.8458C29.4559 31.507 35.6519 37.7176 43.295 37.7176Z" fill="#FFB8B8"/>
<path d="M25.3042 48.3526C25.3042 48.3526 47.9081 52.9765 53.4437 45.5782C58.9794 38.18 61.2859 66.3859 61.2859 66.3859L64.0537 95.9789L59.902 112.163C59.902 112.163 38.2207 129.734 31.3011 131.121C24.3816 132.508 13.7716 133.433 13.7716 133.433C13.7716 133.433 17.0007 82.1072 17.0007 81.1824C17.0007 80.2576 25.3042 48.3526 25.3042 48.3526Z" fill="#6C63FF"/>
<path d="M32.1786 39.6806C32.1786 39.6806 27.1494 36.7928 25.7655 39.5672C24.3816 42.3415 11.4651 49.2774 10.0812 49.2774C8.69724 49.2774 12.849 87.6559 11.0038 92.2798C9.15854 96.9037 0.39377 130.658 5.46811 133.433C10.5425 136.207 6.85203 130.658 11.9264 137.594C17.0007 144.53 41.9111 144.53 43.295 141.756C44.679 138.981 32.2237 118.174 34.5303 98.7533C36.8368 79.3329 40.5272 52.5141 37.2981 48.815C34.069 45.1159 32.1786 39.6806 32.1786 39.6806Z" fill="#2F2E41"/>
<path d="M48.8307 42.8039L49.4732 40.5874C49.4732 40.5874 68.6668 46.9654 69.5894 51.1269C70.512 55.2885 70.0507 84.4191 66.8216 86.7311C63.5924 89.0431 58.9794 92.7422 62.2085 98.2909C65.4376 103.84 69.1281 109.851 71.8959 110.313C74.6637 110.775 79.7381 114.012 78.3542 117.249C76.9702 120.486 60.3633 114.475 60.3633 114.475C60.3633 114.475 49.292 106.152 49.7533 93.2046C50.2146 80.2576 48.8307 42.8039 48.8307 42.8039Z" fill="#2F2E41"/>
<path d="M64.9763 97.3661L53.905 118.174C53.905 118.174 37.7594 134.82 46.9855 136.669C56.2116 138.519 61.2859 121.41 61.2859 121.41L73.2798 104.302L64.9763 97.3661Z" fill="#FFB8B8"/>
<path d="M38.6086 3.62956C38.0508 3.58813 37.4921 3.69676 36.9901 3.94422C36.5363 4.27643 36.1623 4.70608 35.8954 5.20177C34.665 7.05696 33.0611 8.63371 31.1867 9.83076C29.7876 10.7228 28.0088 11.835 28.2482 13.4797C28.3781 14.0312 28.6094 14.5535 28.9302 15.0201C30.2253 17.3105 30.7409 19.9616 30.3989 22.572L34.2461 16.9669C34.8568 16.0771 35.9176 15.0728 36.8397 15.6315C37.1484 15.8186 37.3511 16.1542 37.6725 16.3183C38.4396 16.7101 39.2555 15.9612 39.9345 15.4308C42.2757 13.6017 45.6051 14.0808 48.5185 14.6507C49.894 14.9198 51.4047 15.2728 52.2177 16.4168C53.5689 18.3181 52.158 21.0652 52.9466 23.2615C53.1674 23.1066 53.3548 22.9088 53.4979 22.68C53.641 22.4511 53.7368 22.1957 53.7796 21.9291C54.8794 21.9631 56.2271 21.8548 56.6983 20.858C56.8416 20.4674 56.918 20.0553 56.9242 19.6392C57.0972 17.9649 57.9137 16.4375 58.4546 14.844C58.9955 13.2505 59.2307 11.383 58.3179 9.97023C57.9839 9.49154 57.5809 9.06523 57.122 8.70527C51.9419 4.34255 45.1314 3.62309 38.6086 3.62956Z" fill="#2F2E41"/>
<path d="M64.9763 49.2774L69.2743 50.4209C69.2743 50.4209 79.2767 76.0961 76.9702 93.667C74.6637 111.238 73.2798 107.539 73.2798 107.539C73.2798 107.539 69.5894 99.2157 61.2859 101.065L64.9763 49.2774Z" fill="#2F2E41"/>
<path d="M19.485 250.756C18.3726 252.271 18.5956 254.437 17.6102 256.038C16.7561 257.426 15.1464 258.154 14.078 259.384C13.7371 259.792 13.4332 260.231 13.1699 260.693C12.1788 262.357 11.3732 264.49 12.3493 266.163C13.1345 267.508 14.7849 268.034 16.2986 268.393C18.2117 268.846 20.1995 269.209 22.1347 268.862C24.07 268.516 25.9613 267.328 26.6513 265.483C26.7869 265.019 26.9482 264.563 27.1342 264.117C28.1832 262.047 31.4732 262.025 32.5467 259.968C33.298 258.528 32.6074 256.788 31.9171 255.318L29.8088 250.828C29.1091 249.338 26.2728 250.195 24.7942 249.838C22.8657 249.373 20.8723 248.86 19.485 250.756Z" fill="#2F2E41"/>
<path d="M4.0842 106.614L23.459 136.669C23.459 136.669 35.4529 151.928 39.1433 144.992C42.8337 138.057 26.2268 126.497 26.2268 126.497L13.7716 103.377L4.0842 106.614Z" fill="#FFB8B8"/>
<path d="M13.7716 50.2022L10.0811 49.2774C10.0811 49.2774 2.70028 51.5893 0.855065 61.2996C-0.990149 71.0098 0.393758 109.851 2.70028 110.313C5.0068 110.775 14.0922 103.55 15.5464 105.082C17.0007 106.614 12.3877 98.7533 13.7716 94.5917C15.1555 90.4302 13.7716 50.2022 13.7716 50.2022Z" fill="#2F2E41"/>
<path d="M187.208 70.8419H175.286V73.719H187.208V70.8419Z" fill="#6C63FF"/>
<path d="M228.497 70.8419H224.302V73.719H228.497V70.8419Z" fill="#6C63FF"/>
<path d="M236.887 70.8419H232.692V73.719H236.887V70.8419Z" fill="#6C63FF"/>
<path d="M219.886 70.8419H191.404V73.719H219.886V70.8419Z" fill="#6C63FF"/>
<path d="M172.194 89.4324H160.272V92.3095H172.194V89.4324Z" fill="#6C63FF"/>
<path d="M213.483 89.4324H209.288V92.3095H213.483V89.4324Z" fill="#6C63FF"/>
<path d="M221.873 89.4324H217.678V92.3095H221.873V89.4324Z" fill="#6C63FF"/>
<path d="M204.872 89.4324H176.39V92.3095H204.872V89.4324Z" fill="#6C63FF"/>
<path d="M221.432 77.26H209.509V80.1371H221.432V77.26Z" fill="#6C63FF"/>
<path d="M237.55 77.26H225.627V80.1371H237.55V77.26Z" fill="#6C63FF"/>
<path d="M164.467 77.26H160.272V80.1371H164.467V77.26Z" fill="#6C63FF"/>
<path d="M172.857 77.26H168.662V80.1371H172.857V77.26Z" fill="#6C63FF"/>
<path d="M205.534 77.26H177.052V80.1371H205.534V77.26Z" fill="#6C63FF"/>
<path d="M196.703 83.4568H184.78V86.3339H196.703V83.4568Z" fill="#6C63FF"/>
<path d="M180.585 83.4568H168.662V86.3339H180.585V83.4568Z" fill="#6C63FF"/>
<path d="M164.467 83.4568H160.272V86.3339H164.467V83.4568Z" fill="#6C63FF"/>
<path d="M237.55 83.4568H233.354V86.3339H237.55V83.4568Z" fill="#6C63FF"/>
<path d="M229.159 83.4568H200.677V86.3339H229.159V83.4568Z" fill="#6C63FF"/>
</g>
<defs>
<clipPath id="clip0">
<rect width="285" height="269" fill="white"/>
</clipPath>
</defs>
</svg>
